<mxfile host="app.diagrams.net" modified="2024-05-07T08:44:28.659Z" agent="Mozilla/5.0 (Macintosh; Intel Mac OS X 10_15_7) AppleWebKit/537.36 (KHTML, like Gecko) Chrome/123.0.0.0 Safari/537.36" version="24.3.1" etag="0zUVu51_ZrpfXYa2sGkX" type="github">
  <diagram name="第 1 页" id="_zo9Agr_ONKnz51NXVjA">
    <mxGraphModel>
      <root>
        <mxCell id="0" />
        <mxCell id="1" parent="0" />
      </root>
    </mxGraphModel>
  </diagram>
</mxfile>
